<?xml version="1.0" encoding="UTF-8" standalone="no"?>
<!DOCTYPE svg PUBLIC "-//W3C//DTD SVG 20010904//EN" "http://www.w3.org/TR/2001/REC-SVG-20010904/DTD/svg10.dtd">
<svg version="1.0" xmlns="http://www.w3.org/2000/svg" width="300.000000pt" height="300.000000pt" viewBox="0 0 300.000000 300.000000" preserveAspectRatio="xMidYMid meet">
<metadata>
Created by potrace 1.10, written by Peter Selinger 2001-2011
</metadata>
<g transform="translate(0.000000,300.000000) scale(0.100000,-0.100000)" fill="#000000" stroke="none">
<path d="M1375 2979 c-99 -6 -141 -13 -280 -50 -84 -22 -273 -96 -296 -116 -8 -7 -19 -13 -23 -13 -26 0 -222 -149 -304 -230 -103 -102 -226 -254 -220 -272 2 -6 -6 -22 -18 -35 -12 -13 -33 -47 -47 -76 -57 -120 -67 -144 -67 -155 0 -6 -8 -15 -17 -21 -13 -7 -15 -13 -7 -21 9 -9 7 -21 -7 -50 -18 -37 -46 -169 -54 -255 -2 -22 -7 -50 -10 -62 -3 -12 0 -25 5 -28 7 -4 7 -12 2 -18 -8 -12 1 -220 13 -272 4 -16 8 -46 9 -65 1 -19 4 -40 8 -45 3 -6 11 -28 17 -50 7 -22 16 -49 21 -60 5 -11 16 -45 26 -75 9 -30 23 -64 30 -75 8 -11 14 -27 14 -37 0 -10 5 -18 10 -18 6 0 10 -7 10 -16 0 -8 11 -30 25 -48 14 -18 25 -36 25 -41 0 -14 85 -127 161 -214 75 -85 106 -114 204 -189 47 -36 218 -142 229 -142 3 0 34 -13 69 -29 35 -16 84 -35 108 -41 24 -7 49 -15 54 -20 11 -8 144 -34 159 -30 5 1 12 -3 16 -10 7 -12 243 -28 345 -24 98 5 307 45 362 70 17 8 36 14 42 14 6 0 19 4 29 9 37 20 151 71 158 71 4 0 22 11 40 25 18 14 35 25 38 25 11 0 141 93 180 129 90 83 185 186 235 256 23 33 49 64 57 68 8 5 12 13 8 18 -3 6 1 18 9 27 18 20 87 163 87 180 0 7 5 12 11 12 6 0 9 7 6 15 -4 8 -2 17 3 20 6 4 10 14 10 23 0 9 7 30 15 46 8 15 15 37 15 47 0 11 4 27 10 37 22 38 38 192 38 362 0 184 -11 274 -48 400 -22 74 -35 106 -90 225 -16 33 -30 65 -32 70 -1 6 -29 49 -60 96 -95 143 -264 323 -346 369 -15 8 -29 18 -32 22 -8 10 -181 118 -189 118 -3 0 -23 9 -44 20 -21 12 -75 32 -120 46 -45 14 -91 30 -102 35 -26 12 -118 29 -126 23 -4 -2 -9 1 -11 6 -2 7 -49 13 -113 16 -61 3 -117 6 -125 7 -8 1 -64 -1 -125 -4z m141 -46 c-3 -16 -7 -83 -8 -150 l-3 -123 -75 0 c-41 0 -100 -7 -130 -15 -30 -8 -56 -15 -57 -15 -2 0 -3 9 -3 19 0 11 -5 23 -11 27 -6 3 -9 19 -6 34 3 15 2 31 -3 36 -5 5 -15 38 -24 74 -8 36 -18 73 -21 83 -6 13 -2 17 20 17 14 0 35 5 46 11 11 5 73 14 137 18 64 5 123 9 130 10 10 1 12 -7 8 -26z m219 -3 c22 -5 66 -14 97 -20 49 -10 57 -14 49 -28 -4 -9 -12 -35 -16 -57 -3 -21 -15 -56 -26 -77 -22 -44 -24 -68 -6 -68 8 0 22 25 32 58 9 31 21 64 25 72 4 9 11 30 15 49 5 25 11 31 23 26 10 -4 26 -10 37 -13 11 -2 25 -8 30 -12 6 -3 29 -12 53 -20 23 -7 42 -17 42 -22 0 -4 7 -8 15 -8 11 0 96 -42 113 -55 2 -2 -11 -23 -28 -48 -16 -25 -30 -47 -30 -50 0 -4 -13 -26 -30 -50 -16 -25 -30 -50 -30 -56 0 -6 -4 -11 -10 -11 -5 0 -10 -9 -10 -20 0 -11 -1 -20 -3 -20 -2 0 -42 20 -89 44 -47 25 -102 48 -122 51 -38 8 -53 20 -36 30 15 9 12 45 -4 45 -7 0 -16 -14 -20 -31 -4 -23 -9 -29 -18 -22 -12 10 -77 27 -138 37 -14 3 -46 5 -72 5 l-46 1 3 38 c2 20 4 84 6 142 1 58 3 108 5 111 4 7 134 -7 189 -21z m-575 -77 c6 -32 18 -78 25 -103 8 -25 17 -64 21 -87 5 -36 4 -43 -10 -43 -23 0 -131 -37 -179 -61 -21 -11 -40 -19 -41 -17 -2 2 -16 30 -33 63 -16 33 -46 91 -67 129 -20 37 -36 69 -34 70 56 31 258 103 295 105 6 1 17 -25 23 -56z m-330 -90 c6 -16 15 -37 22 -48 32 -55 99 -187 96 -190 -2 -2 -25 -15 -53 -31 -51 -28 -130 -87 -152 -112 -14 -17 -30 -8 -72 43 -14 17 -54 59 -88 94 -35 35 -63 65 -63 67 0 3 98 80 128 99 108 72 158 104 165 104 4 1 12 -11 17 -26z m1450 -45 c15 -13 40 -32 56 -43 38 -27 161 -132 169 -145 3 -5 2 -10 -2 -10 -5 0 -54 -44 -110 -98 l-101 -98 -48 48 c-27 26 -54 48 -61 48 -7 0 -13 4 -13 9 0 6 -18 20 -40 32 -38 22 -52 39 -30 39 6 0 10 7 10 15 0 8 3 15 8 15 4 0 17 23 30 50 13 28 27 50 32 50 6 0 10 5 10 11 0 12 50 99 57 99 3 0 18 -10 33 -22z m-512 -121 c45 -14 85 -25 87 -26 63 -15 209 -95 295 -159 124 -95 198 -175 275 -297 153 -245 200 -515 144 -830 -6 -33 -17 -74 -25 -92 -8 -17 -14 -34 -14 -37 0 -10 28 -7 32 4 3 10 80 -9 94 -23 4 -4 18 -7 30 -7 13 0 25 -4 28 -9 3 -5 18 -12 33 -15 16 -4 44 -11 64 -17 l37 -9 -36 -88 c-19 -48 -41 -94 -47 -102 -7 -8 -16 -26 -20 -40 -4 -14 -14 -35 -22 -47 l-15 -22 -51 33 c-29 18 -77 47 -107 65 -98 58 -94 45 -44 146 24 49 44 95 44 102 0 35 -24 4 -70 -89 -101 -211 -237 -351 -481 -500 -61 -38 -333 -118 -391 -115 -91 4 -156 -10 -115 -26 21 -8 208 12 223 24 17 14 17 13 44 -118 11 -56 25 -114 30 -128 6 -15 10 -30 10 -34 0 -10 -125 -30 -237 -38 l-93 -6 -1 69 c0 38 0 110 1 160 l1 92 -96 7 c-90 6 -117 4 -102 -11 3 -3 44 -9 91 -11 47 -3 83 -10 80 -14 -3 -5 -5 -72 -6 -148 l0 -139 -56 5 c-32 3 -88 12 -127 20 -38 8 -96 20 -127 27 -45 9 -55 14 -49 26 4 8 20 60 36 115 16 55 30 102 31 104 5 6 104 -21 109 -30 3 -4 -10 -15 -29 -23 -79 -33 -75 -136 6 -177 32 -17 44 -18 80 -8 55 13 83 50 81 103 -1 43 -6 49 -99 111 -29 19 -71 36 -98 40 -43 7 -57 17 -38 29 5 3 25 0 45 -6 29 -9 42 -8 61 2 18 9 36 10 63 4 58 -13 259 -10 338 5 104 20 214 55 286 91 164 81 326 221 418 362 22 35 45 68 51 75 5 7 10 15 10 18 0 2 16 39 35 81 20 42 40 93 45 113 5 20 16 63 25 96 21 84 29 273 15 375 -18 131 -42 207 -117 365 -68 143 -227 314 -391 419 -81 51 -215 110 -277 121 -22 4 -44 11 -50 15 -10 8 -64 15 -190 25 -90 7 -248 -11 -350 -40 -182 -52 -369 -165 -503 -305 -133 -137 -241 -349 -283 -555 -25 -124 -4 -464 31 -499 5 -5 10 -19 10 -30 0 -18 8 -39 48 -126 75 -162 194 -300 355 -414 26 -19 61 -39 77 -46 17 -7 30 -16 30 -21 0 -12 -17 -11 -25 1 -3 5 -25 18 -48 28 -23 10 -48 26 -56 35 -7 10 -19 17 -26 17 -7 0 -18 7 -25 15 -7 8 -17 15 -23 15 -17 0 53 -56 95 -77 34 -16 52 -43 29 -43 -5 0 -33 -43 -62 -95 -30 -52 -57 -95 -61 -95 -5 0 -8 -6 -8 -14 0 -8 -5 -18 -10 -21 -12 -8 -178 116 -235 175 l-40 41 100 94 c55 52 103 95 108 95 4 0 7 7 7 15 0 34 -20 19 -184 -137 -28 -27 -52 -48 -56 -48 -3 0 -10 9 -15 19 -6 11 -30 46 -55 79 -25 33 -51 68 -57 78 -7 10 -24 36 -38 58 -14 21 -25 39 -23 40 2 0 19 9 38 20 19 10 79 41 132 69 78 40 96 53 87 63 -9 11 -16 11 -38 -4 -14 -10 -53 -31 -86 -47 -33 -16 -77 -40 -97 -52 -21 -13 -42 -23 -47 -23 -5 0 -15 17 -22 38 -6 20 -15 42 -19 47 -9 11 -55 137 -72 195 -6 19 -15 38 -21 42 -13 8 0 13 48 22 17 3 79 15 138 27 86 18 107 26 104 38 -2 9 -10 14 -18 12 -115 -29 -271 -57 -274 -47 -7 22 -25 203 -28 273 l-3 73 61 -4 c33 -3 97 -5 143 -5 l82 -1 0 -95 c0 -56 4 -95 10 -95 6 0 9 40 7 107 -4 96 -6 107 -23 109 -25 3 -209 13 -252 14 -18 0 -31 4 -27 9 3 5 8 29 10 53 11 85 30 181 53 263 10 33 30 35 87 9 54 -24 209 -73 217 -68 20 12 3 23 -75 48 -45 14 -95 33 -111 41 -15 8 -32 13 -36 10 -5 -3 -11 -1 -15 5 -3 5 -15 10 -26 10 -21 0 -24 11 -10 38 5 9 19 40 31 67 36 81 64 135 72 135 5 0 8 8 8 18 0 39 21 42 66 11 23 -16 46 -29 51 -29 5 0 16 -9 26 -20 9 -11 23 -20 31 -20 8 0 16 -6 19 -13 3 -8 21 -22 41 -31 l36 -17 -29 -42 c-33 -49 -81 -145 -81 -164 0 -30 18 -9 50 60 80 170 179 292 333 409 68 52 259 158 285 158 5 0 23 7 38 15 16 8 37 15 46 15 9 0 27 5 40 10 46 21 146 29 308 25 140 -3 178 -7 248 -28z m-222 -33 c-3 -9 -8 -55 -11 -102 -3 -48 -8 -105 -11 -127 l-5 -40 -96 0 -97 0 -12 65 c-19 106 -36 174 -46 188 -6 6 -9 12 -7 13 2 0 27 3 54 6 28 2 52 7 54 9 2 2 45 4 94 4 77 0 88 -2 83 -16z m159 -9 c11 -7 46 -18 78 -25 32 -8 56 -16 54 -19 -3 -5 -17 -38 -47 -106 -4 -11 -18 -50 -31 -87 -12 -38 -26 -68 -30 -68 -4 0 -19 6 -34 14 -16 8 -57 18 -92 22 -59 6 -76 15 -53 29 6 3 10 30 10 59 0 29 3 87 6 128 l7 74 56 -4 c31 -2 65 -10 76 -17z m-1143 -52 c35 -37 83 -88 106 -113 24 -24 39 -46 33 -48 -24 -8 -151 -151 -151 -169 0 -19 -3 -18 -86 40 -82 56 -80 55 -136 87 l-37 21 47 58 c55 69 156 190 159 190 1 1 30 -29 65 -66z m689 16 c19 -97 33 -158 44 -196 12 -42 12 -43 -12 -43 -13 0 -49 -11 -79 -25 -30 -14 -60 -25 -67 -25 -7 0 -19 17 -29 38 -9 20 -33 73 -54 117 -21 44 -38 84 -39 90 0 10 202 84 220 80 5 -1 13 -17 16 -36z m715 -62 c3 -3 -4 -8 -15 -12 -20 -6 -84 -111 -96 -157 -6 -25 -5 -26 31 -25 39 2 62 27 25 27 -22 0 -26 7 -13 28 5 7 16 10 25 6 9 -3 17 -2 17 4 0 6 -4 12 -10 14 -6 2 -1 21 11 45 14 29 25 40 36 36 8 -3 19 0 23 7 6 10 13 8 31 -9 12 -11 25 -21 28 -21 3 0 12 -4 20 -9 10 -7 2 -23 -37 -74 -28 -36 -65 -88 -83 -117 -29 -47 -33 -50 -48 -35 -10 8 -22 15 -28 15 -6 0 -16 6 -22 13 -6 8 -29 20 -51 27 -23 7 -43 17 -45 21 -4 6 28 95 61 166 8 17 14 36 14 41 0 6 4 22 10 36 l9 25 51 -23 c28 -13 53 -26 56 -29z m635 -42 c41 -52 88 -117 106 -144 30 -49 30 -50 10 -57 -11 -4 -58 -28 -103 -55 -46 -27 -87 -49 -92 -49 -5 0 -15 -7 -22 -15 -14 -17 -30 -20 -30 -5 0 17 -67 114 -113 165 l-46 50 102 101 c56 55 105 101 108 102 3 1 39 -41 80 -93z m-1600 18 c5 -16 32 -71 59 -124 l49 -95 -37 -20 c-20 -10 -54 -35 -75 -54 l-39 -34 -42 45 c-22 24 -67 73 -98 108 l-58 63 45 32 c89 61 160 105 173 105 7 1 17 -11 23 -26z m1176 -125 c62 -56 103 -99 103 -109 0 -3 -14 -15 -30 -28 -17 -12 -64 -51 -105 -87 l-75 -65 -50 50 c-28 28 -55 51 -60 51 -20 0 -9 25 38 89 26 36 60 85 76 109 16 23 32 42 37 42 4 0 34 -24 66 -52z m-1394 -51 c19 -23 61 -70 93 -104 l59 -62 -50 -53 c-27 -30 -55 -62 -61 -73 -11 -19 -13 -19 -30 -4 -11 9 -43 29 -71 43 -29 14 -53 30 -53 35 0 5 -8 11 -17 14 -10 3 -31 14 -48 24 -16 10 -32 19 -34 20 -9 5 155 202 170 203 4 0 22 -19 42 -43z m884 -10 c205 -55 380 -200 478 -395 49 -98 65 -160 80 -312 14 -153 -58 -367 -170 -503 -87 -106 -163 -160 -320 -228 -93 -41 -249 -58 -362 -40 -292 45 -510 217 -618 485 -63 158 -62 396 2 536 82 178 161 274 302 365 72 47 122 68 209 90 30 8 57 16 60 20 13 12 277 -1 339 -18z m1112 -112 c37 -77 67 -156 76 -205 4 -19 12 -41 18 -48 10 -13 4 -24 -16 -28 -7 -2 -39 -8 -72 -14 -33 -6 -67 -14 -75 -17 -8 -3 -21 -5 -28 -4 -8 1 -19 -2 -25 -8 -7 -5 -26 -11 -42 -13 -26 -3 -30 1 -33 22 -4 35 -52 169 -74 206 l-19 32 93 50 c51 28 107 60 123 71 17 11 33 20 36 20 3 1 20 -28 38 -64z m-449 7 c30 -46 100 -163 100 -168 0 -2 -4 -4 -10 -4 -5 0 -47 -18 -92 -40 -46 -22 -87 -40 -91 -40 -5 0 -22 -9 -38 -21 l-29 -20 -10 27 c-6 15 -24 47 -40 71 -17 24 -30 47 -29 51 0 8 201 181 209 182 3 0 16 -17 30 -38z m-1691 -116 c43 -30 97 -64 119 -75 l42 -21 -33 -63 c-19 -34 -36 -73 -40 -86 -4 -18 -9 -22 -19 -14 -7 6 -38 16 -68 22 -30 7 -62 15 -70 19 -8 3 -19 7 -25 7 -5 1 -23 7 -38 13 -16 7 -35 12 -43 12 -15 0 -19 25 -5 34 4 3 11 20 15 37 3 18 19 53 35 79 16 25 32 56 35 68 4 12 9 22 12 22 2 0 39 -24 83 -54z m1826 -138 c10 -40 25 -88 32 -106 8 -18 11 -37 8 -42 -3 -5 -33 -12 -66 -16 -32 -4 -62 -10 -65 -15 -2 -4 -11 -6 -19 -2 -9 3 -28 1 -43 -5 -15 -6 -39 -13 -54 -16 -25 -6 -27 -3 -37 44 -6 28 -18 61 -26 74 -15 22 -14 24 9 40 14 9 31 16 38 16 7 1 54 23 103 49 50 27 93 49 96 50 3 0 14 -32 24 -71z m425 -86 c0 -15 5 -43 11 -62 16 -55 22 -300 6 -295 -17 6 -129 13 -213 14 l-71 1 -5 135 c-3 77 -10 141 -17 148 -15 19 -4 27 36 27 18 0 33 5 33 10 0 6 12 10 28 11 15 0 56 9 92 19 92 26 100 25 100 -8z m-2396 1 c28 -9 60 -20 71 -25 11 -4 47 -14 80 -21 58 -13 60 -15 57 -43 -2 -16 -6 -55 -8 -87 -5 -54 -8 -58 -28 -53 -12 3 -77 6 -144 7 -114 2 -147 8 -122 24 5 3 10 25 10 48 0 23 6 65 14 92 7 28 11 56 9 63 -6 16 -1 15 61 -5z m2030 -145 c3 -29 6 -84 6 -121 l0 -68 -32 5 c-18 3 -73 6 -123 6 -128 2 -131 4 -127 48 2 20 -1 56 -6 79 -10 45 -4 53 43 53 13 0 27 5 30 10 4 6 10 8 14 5 9 -5 140 20 149 29 3 3 13 6 22 6 13 0 19 -12 24 -52z m-1839 -183 c2 -38 6 -82 10 -96 6 -26 5 -27 -54 -34 -34 -4 -64 -11 -67 -16 -3 -5 -9 -7 -14 -4 -5 3 -37 -3 -71 -15 -34 -11 -64 -19 -65 -17 -5 5 -33 251 -29 257 2 3 67 3 144 0 l142 -5 4 -70z m1784 -31 l63 -6 -6 -36 c-3 -21 -12 -70 -18 -110 -10 -59 -15 -72 -27 -67 -9 4 -41 13 -71 20 -118 30 -190 59 -184 75 3 8 8 42 11 76 l6 61 81 -4 c44 -2 110 -6 145 -9z m361 -20 c47 -3 86 -7 86 -7 2 -3 -25 -145 -37 -197 -6 -25 -13 -60 -16 -77 -3 -18 -9 -33 -13 -33 -5 0 -50 14 -100 30 -51 17 -96 28 -101 24 -5 -3 -9 -1 -9 4 0 6 -16 13 -36 16 -29 6 -34 11 -28 24 18 42 35 122 37 174 l2 57 65 -4 c36 -3 103 -7 150 -11z m-2105 -156 c10 -35 25 -73 33 -86 8 -12 13 -24 11 -25 -2 -2 -24 -12 -49 -22 -25 -11 -77 -39 -116 -62 -39 -24 -75 -43 -80 -43 -17 0 -94 191 -94 233 0 3 21 8 48 12 26 4 52 11 58 16 7 5 35 12 63 16 28 3 54 10 57 14 3 5 15 9 28 9 19 0 25 -10 41 -62z m1627 -34 c35 -13 80 -27 101 -31 20 -3 37 -9 37 -14 0 -5 -4 -9 -10 -9 -5 0 -10 -7 -10 -16 0 -9 -16 -50 -35 -91 -19 -41 -35 -79 -35 -84 0 -14 -11 -11 -44 14 -17 12 -55 33 -83 46 -29 14 -53 27 -53 31 0 4 -16 15 -35 26 -19 10 -35 20 -35 22 0 1 13 28 29 60 15 31 26 63 23 71 -7 19 69 7 150 -25z m-1487 -214 l32 -35 -104 -99 -104 -99 -44 49 c-24 27 -50 60 -57 74 -7 14 -23 40 -37 58 -13 18 -22 34 -20 37 3 2 61 33 129 68 l125 63 24 -40 c13 -23 38 -57 56 -76z m1308 60 c14 -11 29 -20 33 -20 4 0 24 -11 43 -24 20 -13 57 -35 83 -50 l48 -27 -50 -67 c-27 -37 -59 -78 -70 -91 l-21 -25 -24 26 c-13 14 -30 28 -37 31 -9 3 -4 14 16 35 28 30 29 56 1 45 -9 -3 -15 1 -15 11 0 11 9 16 29 16 25 0 30 -4 33 -27 2 -20 9 -28 23 -28 31 0 29 66 -2 80 -14 6 -23 19 -23 32 0 25 -30 46 -53 37 -9 -3 -20 -18 -27 -34 -7 -16 -18 -31 -26 -34 -8 -3 -14 -15 -14 -26 0 -22 16 -28 22 -8 2 6 9 9 15 5 13 -8 11 -70 -2 -72 -5 -2 -34 24 -64 56 l-53 58 32 33 c17 18 38 45 46 61 17 32 24 33 57 7z m55 -97 c2 -9 -7 -13 -27 -13 -30 0 -39 9 -24 24 11 10 46 3 51 -11z m-1195 -112 l37 -23 -19 -31 c-40 -66 -91 -159 -91 -168 0 -5 -4 -9 -9 -9 -5 0 -11 -9 -14 -20 -5 -20 -27 -29 -27 -11 0 5 -21 22 -47 37 -27 15 -71 48 -100 73 l-52 46 101 102 102 102 40 -37 c23 -21 58 -48 79 -61z m1086 -12 l99 -101 -40 -36 c-42 -38 -138 -106 -142 -100 -1 2 -13 21 -28 43 -47 74 -119 197 -116 200 2 1 17 10 34 18 18 9 45 30 60 47 16 16 30 30 31 30 2 0 47 -45 102 -101z m146 71 c3 -5 1 -10 -4 -10 -6 0 -11 5 -11 10 0 6 2 10 4 10 3 0 8 -4 11 -10z m224 -37 c1 -1 -13 -17 -33 -35 -20 -18 -36 -39 -36 -45 0 -19 27 -16 34 4 6 14 14 9 51 -27 25 -24 43 -45 41 -47 -1 -2 -35 9 -75 23 -40 14 -77 22 -81 18 -5 -5 14 -42 41 -81 27 -40 47 -73 44 -73 -3 0 -30 16 -61 37 -38 25 -51 40 -44 47 15 15 12 36 -5 36 -8 0 -15 -5 -15 -12 0 -7 -12 -24 -26 -39 -27 -28 -25 -61 2 -38 11 9 27 3 78 -27 57 -35 63 -41 50 -55 -19 -21 -18 -29 6 -29 11 0 20 6 20 14 0 8 7 16 15 20 8 3 15 12 15 20 0 18 -36 83 -63 113 -11 13 -18 25 -16 28 5 4 56 -17 121 -50 24 -12 28 -11 52 14 29 30 34 51 11 51 -8 0 -15 -4 -15 -10 0 -11 -30 -14 -30 -2 0 4 -20 28 -44 53 -36 39 -41 49 -31 63 10 13 14 14 23 3 6 -7 47 -33 91 -58 73 -40 95 -61 73 -71 -4 -1 -25 -28 -47 -59 -22 -31 -71 -89 -109 -129 l-69 -73 -34 39 c-19 21 -64 69 -100 106 l-67 68 47 47 c62 64 89 97 118 142 21 33 26 37 44 27 11 -6 22 -12 24 -13z m-605 -70 c3 -10 15 -31 26 -48 11 -16 23 -37 27 -45 7 -15 22 -39 64 -101 11 -17 19 -31 17 -32 -33 -20 -221 -97 -233 -97 -2 0 -6 17 -10 38 -4 20 -10 42 -15 47 -4 6 -8 17 -8 25 -2 27 -27 114 -39 136 -13 23 -8 34 16 34 9 0 41 13 71 29 66 35 76 36 84 14z m-750 -12 c17 -10 54 -24 81 -31 60 -16 61 -16 47 -33 -6 -7 -16 -37 -21 -67 -16 -91 -44 -190 -53 -190 -5 0 -28 9 -50 20 -23 11 -46 20 -52 20 -5 0 -29 10 -54 21 -32 16 -46 19 -55 10 -6 -6 -16 -11 -21 -11 -6 0 -4 5 4 10 12 8 12 12 2 18 -9 6 -2 27 29 83 23 41 53 90 66 110 12 19 23 40 23 47 0 17 18 15 54 -7z m563 -107 c8 -32 17 -66 19 -74 3 -8 5 -16 5 -17 -1 -2 9 -28 20 -59 16 -42 18 -58 10 -64 -7 -4 -58 -12 -114 -19 -56 -7 -109 -15 -118 -17 -14 -4 -17 11 -18 126 -1 72 -4 137 -8 146 -4 12 2 15 33 14 52 -2 123 10 130 22 13 20 28 -1 41 -58z m-301 39 l71 -5 7 -82 c3 -44 6 -109 6 -143 l0 -61 -37 4 c-108 11 -218 26 -222 30 -2 2 0 14 6 27 6 12 21 65 33 117 31 137 30 132 48 125 10 -4 49 -10 88 -12z m884 -110 c18 -21 62 -69 97 -106 36 -38 64 -69 62 -70 -2 -1 -26 -20 -54 -43 -47 -38 -115 -84 -197 -133 -42 -25 -33 -35 -104 106 -28 57 -56 109 -63 116 -9 12 5 24 72 65 45 28 94 62 107 75 34 34 43 33 80 -10z m-1342 -96 c20 -13 55 -30 77 -37 22 -7 44 -16 50 -21 12 -12 45 -11 45 1 0 6 -8 10 -17 10 -9 0 -14 2 -11 5 3 4 18 3 32 -1 20 -5 24 -9 16 -19 -8 -9 -7 -14 2 -18 10 -4 10 -8 -2 -16 -8 -5 -11 -13 -7 -17 4 -4 3 -12 -2 -18 -5 -6 -14 -31 -21 -56 -34 -130 -52 -180 -64 -171 -6 5 -27 14 -46 19 -48 14 -190 78 -203 91 -6 6 -17 11 -23 11 -27 0 -23 20 16 82 23 34 46 75 53 91 6 15 15 27 20 27 20 0 56 -34 66 -62 16 -45 14 -55 -12 -62 -13 -3 -29 -18 -36 -33 -12 -25 -10 -29 16 -50 15 -13 39 -26 53 -30 14 -3 31 -12 38 -20 19 -19 32 -16 32 7 0 11 -7 20 -15 20 -20 0 -19 6 10 65 13 28 25 56 25 63 0 8 8 10 25 6 19 -5 25 -2 25 10 0 9 -12 19 -27 22 -16 4 -38 14 -51 22 -28 18 -41 8 -19 -16 18 -20 14 -47 -19 -114 -19 -41 -22 -42 -42 -29 -20 12 -11 44 15 56 55 24 16 142 -53 159 -21 6 -22 9 -12 26 16 25 20 25 66 -3z m122 -27 c0 -5 -5 -10 -11 -10 -5 0 -7 5 -4 10 3 6 8 10 11 10 2 0 4 -4 4 -10z m989 -113 c29 -61 60 -120 68 -129 13 -15 10 -18 -34 -38 -26 -12 -82 -32 -123 -46 -41 -13 -88 -28 -103 -33 -20 -7 -29 -6 -32 2 -7 20 -27 105 -46 200 -7 31 -16 57 -21 57 -4 0 -8 4 -8 9 0 5 18 11 40 15 39 6 57 13 150 55 25 11 47 20 50 20 3 0 29 -50 59 -112z m-824 68 l30 -15 -45 6 c-25 3 -49 10 -54 15 -16 14 36 10 69 -6z m115 -165 c23 -33 18 -85 -11 -100 -51 -28 -119 4 -119 56 0 78 85 107 130 44z"/>
<path d="M1325 2900 c-3 -6 -3 -19 0 -30 4 -11 2 -20 -4 -20 -6 0 -11 -11 -11 -24 0 -13 -7 -26 -15 -30 -8 -3 -14 -13 -13 -23 3 -37 -3 -51 -22 -56 -11 -3 -20 -10 -20 -17 0 -7 18 -10 53 -8 38 2 52 7 52 18 0 10 -8 14 -22 12 -26 -4 -29 5 -9 34 16 22 56 25 80 5 20 -17 20 -31 1 -31 -8 0 -15 -7 -15 -15 0 -17 35 -21 45 -5 3 6 18 7 32 4 21 -6 24 -4 21 12 -2 11 -11 18 -19 16 -11 -1 -30 25 -59 83 -40 79 -60 99 -75 75z m35 -69 c15 -29 12 -41 -8 -41 -26 0 -30 6 -24 35 5 30 18 32 32 6z"/>
<path d="M1607 2913 c-16 -15 -7 -35 13 -30 11 3 22 2 24 -1 2 -4 -2 -38 -9 -77 -10 -63 -14 -70 -33 -68 -14 2 -22 -3 -22 -12 0 -8 6 -16 13 -17 25 -3 63 -8 103 -14 36 -5 44 -3 62 21 22 28 20 51 -7 73 -15 12 -15 14 2 23 9 6 17 21 17 35 0 19 -8 28 -35 40 -19 7 -45 14 -59 14 -14 0 -28 5 -31 10 -7 11 -28 13 -38 3z m127 -61 c7 -13 -9 -33 -29 -36 -26 -4 -31 -26 -6 -26 11 0 25 -8 30 -18 14 -26 -5 -52 -39 -52 -28 0 -28 2 -25 43 3 42 14 95 22 110 4 7 38 -7 47 -21z"/>
<path d="M1951 2774 c-61 -51 -47 -130 29 -173 46 -26 58 -26 90 -1 21 16 23 21 12 32 -11 11 -16 10 -26 -4 -18 -24 -40 -23 -70 5 -37 31 -43 75 -16 110 23 29 45 33 85 15 26 -12 29 -17 25 -57 -3 -39 23 -19 37 27 11 40 11 42 -11 42 -12 0 -31 7 -42 15 -30 23 -79 18 -113 -11z"/>
<path d="M1012 2823 c-5 -10 -7 -23 -5 -29 2 -6 -5 -35 -17 -63 -25 -64 -18 -78 22 -50 34 25 48 15 48 -34 0 -21 4 -28 16 -25 29 5 40 34 20 53 -22 23 -16 39 17 43 31 4 49 23 37 41 -7 12 -15 10 -44 -7 l-37 -22 -9 26 c-6 14 -13 36 -16 50 -8 32 -21 39 -32 17z m28 -89 c0 -8 -7 -14 -15 -14 -17 0 -18 2 -9 24 7 18 24 12 24 -10z"/>
<path d="M688 2636 c-22 -31 -32 -72 -19 -80 5 -4 17 9 27 29 9 19 20 35 25 35 16 0 20 -19 7 -39 -15 -25 -3 -39 21 -24 11 7 22 9 25 6 12 -12 6 -61 -9 -73 -21 -17 -19 -30 4 -30 22 0 41 45 41 96 0 27 -5 35 -24 40 -17 4 -26 14 -28 32 -4 37 -46 42 -70 8z"/>
<path d="M2250 2671 c0 -11 7 -24 16 -29 14 -8 10 -17 -27 -65 -36 -46 -48 -55 -66 -51 -31 8 -30 -16 1 -36 13 -8 42 -28 64 -43 32 -23 47 -27 71 -22 43 9 91 60 91 95 0 45 -8 56 -81 115 -57 46 -69 52 -69 36z m87 -83 c31 -36 34 -43 22 -78 -8 -21 -23 -37 -43 -45 -30 -13 -40 -11 -95 23 -3 1 5 12 16 25 11 12 30 39 42 60 13 20 26 37 30 37 4 0 17 -10 28 -22z"/>
<path d="M277 2163 c-4 -3 -7 -16 -7 -28 0 -11 -5 -26 -12 -33 -18 -18 0 -28 23 -14 17 11 25 10 46 -3 14 -10 28 -26 30 -37 6 -21 40 -20 35 1 -2 8 4 21 12 30 21 23 24 56 6 56 -8 0 -16 -10 -18 -22 -3 -22 -4 -22 -34 -7 -17 9 -41 27 -53 40 -12 13 -25 21 -28 17z"/>
<path d="M130 1824 c0 -25 -4 -53 -10 -63 -12 -23 8 -81 28 -81 10 0 13 8 9 28 -3 15 -2 42 1 61 l7 34 30 -39 c16 -21 32 -41 35 -44 3 -3 19 -22 34 -42 32 -43 60 -51 51 -15 -3 12 -1 44 5 71 13 58 8 79 -25 96 -31 17 -44 6 -22 -18 18 -19 21 -42 11 -79 -8 -27 -20 -30 -28 -5 -4 9 -26 39 -51 65 -25 26 -45 54 -45 62 0 8 -7 15 -15 15 -11 0 -15 -12 -15 -46z"/>
<path d="M393 1858 c-15 -18 -27 -98 -16 -98 10 0 37 100 30 107 -2 2 -9 -2 -14 -9z"/>
<path d="M350 1715 c0 -36 13 -47 24 -19 11 28 6 54 -9 54 -10 0 -15 -11 -15 -35z"/>
<path d="M346 1652 c-4 -13 -5 -26 -2 -29 10 -11 18 4 14 29 l-4 23 -8 -23z"/>
<path d="M270 1505 c0 -16 -57 -75 -73 -75 -4 0 -25 18 -46 40 -44 45 -55 41 -40 -13 9 -34 12 -36 39 -30 23 4 30 2 30 -10 0 -16 -20 -27 -52 -27 -14 0 -18 -5 -14 -16 3 -9 6 -27 6 -40 0 -15 6 -24 15 -24 8 0 15 8 15 17 0 9 14 29 32 43 l32 27 34 -20 c19 -11 39 -31 45 -44 5 -12 16 -23 24 -23 15 0 18 26 4 34 -5 3 -7 14 -5 24 2 9 0 24 -6 32 -9 13 -11 13 -19 1 -8 -13 -14 -13 -38 -2 l-28 13 25 14 c14 7 32 13 41 14 24 0 21 73 -3 78 -12 2 -18 -3 -18 -13z"/>
<path d="M387 1213 c-3 -4 1 -17 9 -28 10 -13 14 -15 14 -4 0 20 -16 43 -23 32z"/>
<path d="M157 1158 c-2 -7 0 -20 4 -28 4 -8 14 -30 21 -48 7 -17 17 -30 23 -28 11 3 11 22 1 46 -5 12 5 15 59 15 45 0 65 -4 65 -12 0 -7 -3 -13 -7 -13 -5 0 -23 -14 -41 -31 -20 -19 -39 -28 -48 -25 -26 10 -33 -3 -18 -32 7 -15 14 -35 14 -45 0 -12 6 -17 18 -15 10 2 16 11 14 22 -4 21 103 136 125 136 18 0 16 27 -3 34 -9 3 -55 6 -104 6 -69 0 -89 3 -94 15 -7 18 -23 20 -29 3z"/>
<path d="M2579 1093 c-5 -35 -17 -61 -40 -92 -18 -23 -18 -24 10 -52 16 -16 34 -29 40 -29 19 0 12 27 -10 42 -19 12 -20 17 -9 39 7 13 14 25 15 27 1 1 24 -9 50 -23 26 -14 54 -25 61 -25 19 0 29 -21 14 -30 -7 -5 -10 -15 -6 -25 9 -24 33 -3 41 36 4 16 11 31 16 34 15 10 10 35 -6 35 -8 0 -15 -7 -15 -15 0 -18 -4 -18 -28 -5 -9 6 -39 19 -66 30 -38 16 -46 23 -37 34 6 7 8 16 4 19 -9 9 -33 9 -34 0z"/>
<path d="M376 995 c-4 -10 1 -15 14 -15 11 0 20 7 20 15 0 8 -6 15 -14 15 -8 0 -16 -7 -20 -15z"/>
<path d="M480 877 c0 -7 5 -18 10 -23 7 -7 -7 -24 -45 -52 -31 -23 -60 -42 -64 -42 -16 0 -20 42 -5 57 8 8 14 19 14 24 0 14 -26 11 -40 -6 -7 -8 -19 -15 -26 -15 -8 0 -14 -3 -14 -6 0 -5 54 -77 78 -102 6 -7 12 -19 12 -25 0 -7 4 -18 9 -26 7 -11 15 -9 40 10 17 12 31 29 31 36 0 18 -15 16 -30 -2 -12 -14 -15 -14 -32 2 -18 16 -18 17 9 39 15 13 32 23 37 24 6 0 20 10 33 22 22 20 24 20 42 4 30 -27 38 1 9 32 -14 15 -28 35 -31 45 -7 20 -37 23 -37 4z"/>
<path d="M648 623 c-27 -33 -28 -41 -8 -88 25 -58 25 -55 -3 -55 -33 0 -48 18 -34 41 9 14 9 21 -1 31 -10 10 -14 8 -18 -9 -3 -12 -12 -24 -20 -27 -18 -7 -18 -26 0 -26 8 0 21 -8 28 -19 21 -30 52 -34 81 -11 27 21 27 32 6 86 -15 37 -7 64 18 64 24 0 49 -38 34 -53 -16 -16 -13 -47 4 -47 8 0 15 7 15 15 0 8 9 23 20 32 25 22 27 46 2 39 -13 -4 -23 1 -32 19 -16 30 -69 35 -92 8z"/>
<path d="M1585 351 c-14 -13 -3 -32 18 -29 20 3 23 -2 31 -70 5 -40 6 -75 3 -78 -3 -4 -18 -4 -32 0 -31 8 -35 50 -5 66 23 12 27 30 6 30 -24 0 -66 -41 -66 -64 0 -12 10 -32 23 -43 19 -19 30 -21 90 -16 55 5 67 9 65 22 -2 9 -11 15 -20 13 -12 -2 -17 9 -22 45 -4 27 -9 60 -12 76 -5 22 -2 27 15 27 12 0 21 6 21 14 0 11 -14 14 -55 13 -31 -1 -58 -3 -60 -6z"/>
<path d="M1455 2520 c-4 -6 -10 -8 -15 -5 -11 7 -51 -12 -62 -29 -13 -19 -9 -46 7 -46 8 0 15 -5 15 -12 0 -6 10 -22 21 -35 18 -18 20 -25 9 -38 -14 -17 -46 -20 -55 -4 -4 5 1 19 11 30 9 10 15 21 12 24 -9 10 -38 -7 -50 -28 -9 -18 -6 -24 17 -44 30 -27 56 -24 93 10 28 26 28 32 -4 64 -24 24 -25 28 -10 38 9 7 16 19 16 27 0 9 10 18 22 21 18 5 19 8 8 21 -14 18 -26 20 -35 6z m-25 -44 c0 -16 -18 -31 -27 -22 -8 8 5 36 17 36 5 0 10 -6 10 -14z"/>
<path d="M1624 2538 c-3 -4 2 -8 10 -8 9 0 16 -7 16 -16 0 -25 -22 -108 -33 -121 -11 -15 -3 -43 13 -43 6 0 13 8 16 18 18 53 28 72 40 72 8 0 14 -4 14 -10 0 -5 -7 -10 -15 -10 -17 0 -19 -18 -5 -55 17 -45 60 -42 60 5 0 12 -2 12 -9 1 -7 -10 -12 -8 -24 10 -19 26 -14 39 14 39 12 0 19 7 19 19 0 23 -28 35 -47 20 -7 -7 -16 -10 -18 -7 -4 4 6 45 20 80 5 13 0 16 -30 15 -20 -1 -39 -5 -41 -9z"/>
<path d="M594 2414 c-8 -22 -54 -74 -66 -74 -4 0 -8 10 -8 23 0 13 -6 32 -14 42 -12 17 -17 18 -39 6 -26 -14 -37 -37 -37 -79 0 -17 5 -23 18 -20 11 2 17 13 17 32 0 16 5 31 11 33 13 4 24 -28 24 -69 0 -37 14 -35 60 8 46 44 68 90 52 106 -8 8 -13 6 -18 -8z"/>
<path d="M1180 2500 c-12 -7 -12 -12 -2 -22 18 -18 15 -30 -7 -26 -27 4 -61 -30 -61 -62 0 -26 36 -70 57 -70 14 0 63 39 63 51 0 14 -22 11 -41 -7 -10 -9 -23 -13 -28 -9 -14 8 -14 45 -1 45 20 0 50 41 50 69 0 34 -10 44 -30 31z m-20 -80 c0 -5 -4 -10 -10 -10 -5 0 -10 5 -10 10 0 6 5 10 10 10 6 0 10 -4 10 -10z"/>
<path d="M2530 2408 c0 -8 5 -19 11 -25 7 -7 1 -17 -23 -33 -18 -13 -46 -35 -61 -49 -28 -25 -29 -26 -43 -7 -10 15 -17 17 -25 9 -9 -9 -4 -20 19 -42 16 -17 36 -44 44 -61 13 -31 16 -31 76 -9 31 12 17 32 -17 24 -20 -4 -32 0 -46 15 -19 21 -19 21 10 45 33 26 45 24 45 -6 0 -14 6 -19 17 -17 27 5 28 34 1 42 l-23 6 25 20 c32 25 37 25 50 0 9 -16 7 -24 -5 -36 -21 -21 -19 -33 5 -27 11 3 20 9 20 14 0 5 7 9 15 9 25 0 18 17 -31 78 -50 61 -64 72 -64 50z"/>
<path d="M928 2339 c-38 -21 -41 -48 -14 -90 15 -21 34 -39 44 -39 20 0 62 39 62 58 0 19 -20 14 -39 -9 l-17 -22 -22 28 c-28 35 -28 43 0 47 13 2 24 11 26 21 4 19 -14 22 -40 6z"/>
<path d="M2086 2246 c4 -18 1 -27 -15 -35 -29 -16 -46 -50 -28 -57 14 -5 97 70 97 87 0 10 -34 29 -50 29 -6 0 -8 -10 -4 -24z"/>
<path d="M2140 2202 c0 -20 -34 -55 -64 -66 -14 -5 -16 -10 -8 -18 14 -14 67 7 87 36 20 27 19 66 0 66 -8 0 -15 -8 -15 -18z"/>
<path d="M700 2155 c-7 -8 -9 -22 -5 -32 5 -12 9 -14 12 -5 7 17 42 15 49 -3 4 -8 12 -15 20 -15 16 0 19 -16 5 -25 -6 -3 -14 2 -19 11 -5 9 -14 14 -21 10 -18 -12 -13 -32 13 -45 25 -14 46 -8 46 12 0 7 9 18 20 25 25 16 26 32 1 32 -11 0 -32 11 -47 25 -31 28 -56 32 -74 10z"/>
<path d="M1294 2231 c-162 -40 -305 -131 -402 -256 -122 -159 -170 -308 -158 -495 7 -126 18 -168 73 -290 22 -48 104 -158 150 -200 103 -95 182 -137 363 -191 95 -29 320 -12 410 31 8 4 42 19 74 34 234 107 396 372 396 649 0 299 -176 567 -446 680 -134 56 -321 71 -460 38z m376 -34 c40 -9 159 -65 199 -94 58 -43 151 -135 179 -178 150 -230 170 -484 56 -720 -92 -190 -246 -317 -454 -372 -147 -40 -365 -17 -500 52 -129 66 -243 177 -310 302 -34 62 -62 134 -65 168 -1 6 -5 24 -9 42 -16 71 -6 296 15 309 5 3 9 15 9 27 0 12 19 59 43 105 141 275 421 418 732 375 50 -7 97 -14 105 -16z"/>
<path d="M1865 1553 c-11 -3 -22 -9 -25 -12 -7 -11 -130 -42 -161 -41 -35 0 -64 -34 -60 -72 1 -16 -3 -49 -10 -74 -12 -39 -16 -43 -39 -37 -31 7 -34 9 -25 22 3 6 15 11 26 11 25 0 48 45 31 62 -8 8 -13 7 -18 -5 -3 -9 -11 -17 -16 -17 -6 0 -16 -8 -23 -17 -10 -13 -25 -17 -63 -15 -39 1 -50 -1 -48 -13 4 -26 17 -30 32 -11 7 11 17 17 20 13 4 -4 1 -13 -6 -22 -15 -19 -5 -34 12 -17 17 17 38 15 38 -4 0 -8 -4 -12 -10 -9 -5 3 -10 4 -10 0 0 -9 24 -50 35 -57 5 -4 6 -10 2 -15 -5 -4 -12 -1 -16 6 -9 14 -31 7 -31 -9 0 -5 7 -16 16 -25 15 -14 13 -19 -19 -54 -40 -44 -49 -38 -40 28 4 26 13 45 24 52 23 12 25 34 3 25 -10 -4 -14 -2 -11 6 2 7 10 12 16 10 6 -1 11 4 11 11 0 8 -6 14 -12 14 -7 0 -25 4 -40 8 -23 6 -28 4 -28 -12 0 -21 -30 -51 -46 -46 -18 6 -75 -63 -80 -98 -8 -46 30 -92 76 -92 18 0 35 6 40 13 6 10 12 4 23 -21 28 -67 135 -125 211 -114 108 16 171 58 203 134 18 41 19 139 2 185 -11 29 -10 35 9 54 33 33 38 69 15 100 -30 42 -81 64 -130 57 -77 -11 -54 12 34 34 47 11 87 22 87 23 1 2 10 13 20 26 19 22 17 24 -19 15z m-185 -98 c0 -8 -4 -15 -10 -15 -5 0 -10 7 -10 15 0 8 5 15 10 15 6 0 10 -7 10 -15z m149 -51 c17 -14 31 -34 31 -44 0 -21 -49 -82 -50 -62 0 29 -85 83 -132 84 -20 1 -28 6 -28 19 0 20 20 26 97 28 42 1 57 -4 82 -25z m-147 -54 c26 0 98 -38 98 -51 0 -14 -80 -3 -94 12 -6 5 -20 9 -33 9 -16 0 -23 6 -23 18 0 25 11 35 24 22 5 -5 18 -10 28 -10z m-102 -69 c0 -24 -18 -37 -32 -23 -8 8 -7 16 2 27 17 21 30 19 30 -4z m89 -1 c23 -12 91 -16 112 -6 11 5 19 -1 29 -21 44 -94 16 -219 -59 -266 -29 -18 -51 -22 -117 -22 -73 0 -85 3 -125 30 l-44 30 30 3 c51 6 84 58 66 104 -7 19 -3 38 22 91 33 68 47 78 86 57z m-218 -49 c-6 -11 -11 -29 -11 -40 0 -12 -4 -21 -10 -21 -15 0 -12 33 7 76 11 27 18 34 20 22 3 -9 -1 -26 -6 -37z m-68 -65 c-3 -26 -1 -46 6 -50 12 -8 15 -46 4 -46 -38 1 -73 35 -73 70 0 11 50 70 60 70 4 0 5 -20 3 -44z m157 -46 c0 -23 -25 -60 -41 -60 -9 0 -24 -3 -33 -6 -9 -3 -16 -1 -16 6 0 6 5 8 10 5 6 -3 10 -1 10 6 0 15 41 57 58 58 6 1 12 -3 12 -9z"/>
<path d="M1772 1401 c2 -7 7 -12 11 -12 12 1 9 15 -3 20 -7 2 -11 -2 -8 -8z"/>
<path d="M2725 2090 c-4 -6 -1 -17 5 -25 10 -12 10 -15 -1 -15 -8 0 -26 -6 -41 -14 -14 -8 -43 -19 -63 -26 -31 -10 -39 -10 -46 1 -6 10 -11 11 -19 3 -9 -9 -8 -18 1 -35 7 -13 15 -30 19 -38 11 -25 34 -27 28 -3 -5 17 1 25 25 37 38 19 37 19 37 -5 0 -11 -5 -20 -11 -20 -6 0 -9 -6 -6 -12 5 -15 35 -12 55 5 11 9 9 14 -9 28 l-22 17 31 16 c39 20 42 20 42 -3 0 -11 5 -23 11 -27 8 -4 4 -13 -12 -25 -18 -13 -21 -21 -13 -29 8 -8 14 -9 18 -1 4 6 16 11 26 11 10 0 21 4 24 9 6 9 -22 70 -36 81 -3 3 -8 21 -10 39 -3 35 -21 51 -33 31z"/>
<path d="M2254 2083 c4 -13 -8 -27 -44 -50 -27 -18 -57 -33 -65 -33 -17 0 -20 -25 -5 -35 6 -4 24 1 41 9 27 14 33 14 46 1 21 -21 70 -18 93 5 26 26 25 46 -1 60 -11 6 -18 17 -16 23 2 6 -7 17 -21 24 -32 17 -34 16 -28 -4z m41 -69 c0 -14 -8 -20 -32 -22 -38 -4 -42 9 -10 31 27 20 42 16 42 -9z"/>
<path d="M608 1959 c-10 -5 -18 -17 -18 -24 0 -19 -14 -19 -51 1 -17 8 -32 14 -34 12 -1 -2 -6 -19 -9 -38 -6 -33 -6 -34 8 -16 15 19 17 18 75 -12 67 -36 83 -39 105 -16 23 22 20 57 -7 82 -25 24 -43 27 -69 11z m62 -44 c22 -26 -2 -40 -39 -24 -17 8 -31 17 -31 20 0 23 52 26 70 4z"/>
<path d="M2363 1868 c2 -17 -5 -23 -30 -29 -45 -9 -66 -28 -52 -45 9 -11 16 -11 40 2 16 8 34 12 38 9 13 -7 41 23 41 44 0 18 -18 41 -32 41 -4 0 -7 -10 -5 -22z"/>
<path d="M2387 1783 c-3 -15 -5 -29 -4 -29 1 -1 11 -4 22 -8 17 -5 20 -1 20 26 0 43 -30 52 -38 11z"/>
<path d="M2698 1703 c-36 -40 -40 -59 -27 -119 12 -51 13 -53 40 -47 23 4 29 2 29 -12 0 -9 6 -15 13 -12 10 3 13 42 8 100 -1 4 -8 7 -17 7 -11 0 -14 -6 -9 -20 5 -16 2 -20 -19 -20 -23 0 -26 4 -26 34 0 76 124 109 151 40 11 -30 1 -84 -16 -84 -16 0 -38 -27 -28 -33 5 -3 24 0 44 6 33 10 34 12 33 56 -1 25 -2 52 -3 59 0 7 -16 26 -33 43 -45 40 -103 41 -140 2z"/>
<path d="M437 1713 c-7 -35 8 -52 22 -25 16 29 53 18 45 -13 -4 -16 1 -30 15 -44 40 -40 108 -18 99 32 -3 16 0 31 8 38 19 15 6 41 -14 30 -10 -5 -39 -5 -67 0 -89 14 -102 12 -108 -18z m163 -37 c0 -7 -7 -19 -15 -26 -13 -11 -20 -11 -40 0 -39 21 -31 40 15 40 27 0 40 -4 40 -14z"/>
<path d="M2425 1650 c-3 -5 -3 -14 0 -20 4 -6 -10 -10 -35 -10 -34 0 -42 -4 -52 -25 -14 -32 0 -78 25 -83 22 -4 22 17 0 34 -23 16 -9 31 32 36 28 3 30 1 27 -28 -2 -21 2 -33 13 -37 15 -7 19 1 15 41 -1 14 4 22 14 22 20 0 21 29 1 36 -8 4 -15 12 -15 19 0 18 -17 28 -25 15z"/>
<path d="M436 1489 c-9 -13 -16 -28 -16 -34 0 -21 41 -55 66 -55 17 0 28 -7 31 -20 3 -11 12 -20 19 -20 16 0 19 16 4 25 -23 14 4 24 60 22 44 -2 60 1 60 10 0 20 -46 34 -90 27 -36 -6 -39 -5 -42 22 -2 15 -9 30 -17 32 -11 4 -13 -3 -8 -32 5 -33 4 -36 -18 -36 -32 0 -42 20 -19 37 16 12 17 15 2 29 -14 14 -17 14 -32 -7z"/>
<path d="M2427 1410 c-4 -15 -14 -20 -39 -20 -19 0 -39 5 -46 12 -9 9 -15 9 -24 0 -9 -9 -7 -17 10 -35 12 -13 22 -28 22 -33 0 -16 44 -54 63 -54 18 0 37 29 30 47 -3 10 -9 10 -24 0 -16 -10 -22 -8 -40 10 l-21 21 35 0 c47 0 57 7 57 43 0 33 -15 39 -23 9z"/>
<path d="M2656 1363 c-3 -3 -6 -15 -6 -25 0 -10 -4 -18 -9 -18 -10 0 -8 -51 3 -69 12 -18 28 -2 20 21 -5 18 -3 20 12 13 11 -4 45 -12 76 -18 54 -9 57 -11 52 -33 -4 -17 -2 -24 9 -24 17 0 27 21 27 55 0 13 5 25 12 27 17 6 2 38 -17 38 -12 0 -15 -6 -10 -21 6 -19 4 -21 -16 -16 -13 4 -48 12 -76 18 -40 9 -53 17 -53 30 0 20 -14 32 -24 22z"/>
<path d="M582 1255 c-36 -16 -50 -41 -33 -58 18 -18 14 -23 -29 -37 -22 -7 -40 -16 -40 -19 0 -3 9 -17 20 -31 19 -24 20 -24 20 -4 0 18 14 26 78 47 58 19 77 30 77 44 0 20 -15 21 -62 2 -41 -17 -55 -3 -24 22 39 31 69 34 95 9 28 -25 42 -13 20 18 -18 26 -71 29 -122 7z"/>
<path d="M2290 1213 c0 -10 -12 -29 -25 -42 -30 -28 -37 -72 -15 -95 15 -15 31 3 20 24 -7 13 -4 24 11 44 l21 27 15 -28 c9 -15 16 -39 17 -53 1 -16 8 -26 20 -28 14 -3 17 0 13 13 -4 9 2 28 14 45 15 20 20 36 15 54 -7 29 -38 36 -35 9 5 -52 -16 -60 -26 -10 -11 50 -45 80 -45 40z"/>
<path d="M736 1016 c4 -9 -9 -23 -35 -38 -46 -26 -50 -36 -21 -61 24 -20 48 -13 30 8 -8 10 0 19 35 41 50 32 56 49 23 58 -34 9 -38 7 -32 -8z"/>
<path d="M600 916 c0 -14 21 -26 46 -26 19 0 18 26 -2 34 -26 10 -44 7 -44 -8z"/>
<path d="M917 873 c-12 -15 -39 -46 -59 -69 -41 -44 -45 -54 -25 -54 7 0 20 -9 30 -20 22 -26 47 -25 81 1 34 27 35 65 1 81 -14 6 -25 15 -25 19 0 4 11 16 25 27 14 11 25 25 25 31 0 20 -30 11 -53 -16z m12 -80 c12 -23 -4 -53 -29 -53 -28 0 -33 17 -13 45 21 29 29 31 42 8z"/>
<path d="M2052 868 c-7 -7 -12 -23 -12 -36 0 -21 -4 -23 -24 -18 -16 4 -30 0 -40 -10 -25 -25 -19 -34 22 -31 39 2 39 1 30 -58 -2 -13 3 -20 12 -20 10 0 16 12 18 33 4 34 11 39 31 20 10 -11 16 -8 31 12 11 14 20 34 19 45 0 19 -1 18 -20 -4 -16 -20 -24 -23 -37 -14 -23 14 -28 53 -7 53 10 0 15 7 13 17 -4 21 -21 26 -36 11z"/>
<path d="M1836 768 c-8 -13 -16 -48 -19 -78 -2 -30 -9 -65 -15 -77 -13 -24 -2 -39 23 -29 10 3 15 20 15 48 l1 43 24 -30 c26 -32 46 -29 69 8 14 21 1 33 -19 17 -13 -11 -20 -9 -40 10 -31 29 -33 66 -4 75 11 4 18 12 16 18 -7 22 -35 19 -51 -5z"/>
<path d="M1059 719 c-12 -17 -22 -47 -23 -68 -1 -30 3 -37 21 -39 21 -3 22 0 17 28 -5 23 -1 39 13 58 34 48 35 52 14 52 -11 0 -30 -14 -42 -31z"/>
<path d="M1123 703 c-3 -10 -15 -30 -25 -45 -11 -16 -15 -28 -9 -28 6 0 11 -9 11 -19 0 -21 26 -36 35 -21 9 15 25 12 25 -5 0 -8 9 -15 21 -15 14 0 19 6 18 18 -2 9 3 34 10 55 7 21 10 41 7 44 -12 12 -35 -7 -41 -36 -5 -22 -12 -31 -26 -31 -23 0 -24 18 -3 48 16 24 13 52 -6 52 -6 0 -13 -8 -17 -17z"/>
<path d="M1585 647 c-31 -26 -28 -43 11 -57 28 -11 33 -34 5 -25 -23 7 -38 -12 -22 -28 8 -8 20 -7 46 7 43 23 45 44 5 57 -16 6 -30 17 -30 25 0 16 26 19 35 4 11 -18 26 -10 23 13 -4 31 -40 33 -73 4z"/>
<path d="M1337 652 c-52 -32 -38 -104 21 -110 37 -4 60 11 73 46 20 52 -43 95 -94 64z m51 -24 c27 -27 -1 -73 -35 -61 -24 9 -9 73 17 73 3 0 11 -5 18 -12z"/>
<path d="M2240 620 c0 -5 -19 -19 -41 -31 -30 -15 -38 -24 -30 -32 7 -7 18 -7 38 2 24 11 29 10 38 -4 5 -10 21 -31 34 -47 13 -16 22 -30 20 -32 -2 -2 -49 8 -103 21 -55 13 -103 20 -108 15 -4 -4 14 -40 42 -81 27 -40 50 -74 50 -77 0 -2 -7 -4 -15 -4 -8 0 -15 -7 -15 -16 0 -12 6 -15 23 -10 12 3 25 6 30 6 4 0 7 7 7 15 0 8 6 15 14 15 7 0 19 7 26 15 10 12 9 16 -4 21 -9 3 -23 1 -31 -6 -9 -7 -17 -11 -18 -9 -1 2 -17 23 -35 46 -17 23 -32 44 -32 46 0 5 95 -18 160 -38 40 -13 47 -12 60 1 13 14 13 17 0 27 -8 7 -35 38 -59 71 -31 42 -40 60 -31 66 7 4 9 13 6 19 -9 14 -26 15 -26 1z"/>
<path d="M1910 429 c-63 -26 -99 -88 -81 -142 17 -50 43 -69 92 -69 51 1 87 25 112 74 21 44 12 75 -35 119 -34 31 -48 34 -88 18z m74 -60 c32 -38 33 -63 1 -94 -36 -37 -94 -31 -114 11 -17 38 -13 71 11 94 32 30 71 26 102 -11z"/>
</g>
</svg>